<?xml version="1.0" encoding="UTF-8"?>
<svg id="Layer_1" data-name="Layer 1" xmlns="http://www.w3.org/2000/svg" viewBox="0 0 78.99 84.65">
  <path d="M38.03,84.65H11.17c-1.79,0-3.25-1.45-3.25-3.25v-37.89c0-1.79,1.46-3.25,3.25-3.25h26.85v44.38ZM38.03,38.27H2.24c-1.23,0-2.24-1-2.24-2.23v-10.47c0-1.23,1-2.23,2.24-2.23h35.79v14.94ZM39.47,20.57l-1.39-.24c-1.64-.28-16.13-2.85-20.63-6.28-4.94-3.78-5.6-9.25-1.47-12.19C17.7.64,19.96,0,22.55,0,26.06,0,29.68,1.22,32.45,3.34c3.31,2.51,5.8,9.01,7.03,12.74,1.23-3.74,3.76-10.21,7.08-12.72C49.34,1.26,52.96.06,56.48.07c2.58,0,4.85.66,6.54,1.89,4.13,2.97,3.44,8.43-1.52,12.19-4.51,3.41-19.01,5.91-20.65,6.19l-1.39.23ZM71.07,81.41c0,1.79-1.45,3.25-3.25,3.25h-26.85v-44.38h26.85c1.8,0,3.25,1.45,3.25,3.25v37.89ZM78.99,36.04c0,1.23-1,2.23-2.24,2.23h-35.79v-14.94h35.79c1.23,0,2.24,1,2.24,2.23v10.47ZM59.27,4.8c-.85-.61-2.03-.94-3.4-.94-2.13,0-4.44.78-6.19,2.11-2.23,1.68-4.28,6.88-5.35,10.12,4.38-.86,11.36-2.5,13.59-4.18,3.02-2.28,3.62-5.47,1.35-7.11ZM29.43,5.78c-1.81-1.39-4.21-2.21-6.41-2.22-1.41,0-2.63.33-3.52.96-2.36,1.68-1.75,4.99,1.36,7.37,2.3,1.74,9.53,3.48,14.06,4.39-1.08-3.38-3.19-8.76-5.49-10.51Z" fill="#fcb92a"/>
</svg>