<?xml version="1.0" encoding="UTF-8"?>
<svg id="Layer_1" data-name="Layer 1" xmlns="http://www.w3.org/2000/svg" viewBox="0 0 80.07 75.41">
  <path d="M46.79,75.32c-1.18-5.26-2.08-10.63-2.12-16.04-.07-2.02,1.89-3.69,3.82-3.77,2.26-.28,4.71-.54,6.89.33,1.35.87,2.76,3.79,4.57,2.19.46-1.53-1.26-2.3-2.09-3.27,2.44.52,5.2,1.71,7.46,0-1.28-1.77-3.5-1.53-5.41-1.66.43-.58.6-1.89,1.59-1.37,4.03,1.14,8.84,1.02,12.07-1.97,3.14-2.48,4.01-6.82,3.15-10.58,3.95-3.83,4.27-10.35,1.69-15.02-1.57-2.92-4.42-4.85-7.47-5.98-.23-2.36-.9-4.75-2.58-6.5-3.21-3.63-8.43-4.64-13.03-3.71C51.98,2.91,45.97-.15,39.91,0c-5.93-.03-11.6,3.17-15.06,7.91-2.69-.56-5.55-.73-8.16.27-4.3,1.41-7.7,5.51-7.72,10.14-2.96,1.27-5.82,3.15-7.34,6.09-2.6,4.64-2.13,10.96,1.63,14.86-1.04,3.87.11,8.39,3.37,10.87,3.11,2.53,7.47,2.52,11.17,1.51.52.36,1.06.74,1.59,1.11-1.71.41-3.43.88-4.93,1.85,2.18,2.45,5.38,0,8.05-.05-.77,1.04-2.81,3.2-.57,3.93,2.33-.29,2.81-3.79,5.34-3.58,2.87-.05,6.46.19,8.28,2.75.99,5.95-.66,11.98-1.97,17.76M56.85,46.65c.86,1.31,1.79,2.56,2.81,3.75-3.67,1.55-7.69,2.11-11.64,2.07,2.9-2.01,5.81-3.99,8.83-5.82ZM55.29,42.75c-3.91,2.63-8.15,4.74-11.8,7.77.13-1.59.13-3.25.79-4.73.88-2.12,2.81-3.48,4.4-5.03,1.73,1.86,4.2,2.12,6.62,1.99ZM46.57,38.57c-1.07,1.09-2.19,2.13-3.39,3.09-.1-1.94-.13-3.89-.16-5.83,1.2.88,2.39,1.79,3.55,2.74ZM38.01,35.79c1.53,2.99.31,6.4.21,9.56-1.34-2.01-2.9-3.85-4.79-5.35,1.05-.37,2.31-.44,3.14-1.26.59-.93.97-1.97,1.44-2.96ZM31.04,42.1c1.89,2.77,3.82,5.52,5.49,8.43-2.97-.88-5.33-2.98-8.08-4.31-1.66-.99-3.89-1.47-4.68-3.45,2.44.14,5,.5,7.27-.67ZM22.95,46.95c2.75,2,5.76,3.61,8.66,5.38-3.88.19-7.8-.25-11.48-1.52.98-1.26,1.91-2.55,2.82-3.86Z" fill="#76a900"/>
</svg>